# xmcd
#
# Track frame offsets:
#	150
#	16727
#	33152
#	55402
#	71377
#	91777
#	111330
#	123640
#	139352
#	157427
#
# Disc length: 2336 seconds
#
# Revision: 4
# Processed by: cddbd v1.5.2PL0 Copyright (c) Steve Scherf et al.
# Submitted via: EasyCDDAExtractor 15.3.0.1
#
DISCID=8a091e0a
DTITLE=Alejandra Guzman - Enorme
DYEAR=1994
DGENRE=Latin
TTITLE0=Cuando Dos Van A Muerte
TTITLE1=Pasa La Vida
TTITLE2=Despertar
TTITLE3=Dan Tanto Miedo
TTITLE4=De Un Trago
TTITLE5=No Hay Nadie Como Tu
TTITLE6=Baila
TTITLE7=Amigo
TTITLE8=Morir De Amor
TTITLE9=Corazones Rotos
EXTD=YEAR: 1994 ID3G: 17
EXTT0=
EXTT1=
EXTT2=
EXTT3=
EXTT4=
EXTT5=
EXTT6=
EXTT7=
EXTT8=
EXTT9=
PLAYORDER=
